# xmcd CD database file
#
# Track frame offsets:
#	183
#	32383
#	62713
#	86198
#	121235
#	171615
#	198108
#
# Disc length: 3076 seconds
#
# Revision: 0
# Processed by: cddbd v1.5.1PL0 Copyright (c) Steve Scherf et al.
# Submitted via: CDex 1.51
#
DISCID=590c0207
DTITLE=Martial Solal - Martial Solal with the Kentonians
DYEAR=1956
DGENRE=Jazz
TTITLE0=Why Not
TTITLE1=Steeple Chase
TTITLE2=I Remember You
TTITLE3=Blues Martial
TTITLE4=The Way You Look Tonight
TTITLE5=They Say That Talking Love Is Wonderful
TTITLE6=Jive At Five
EXTD=YEAR: 1956
EXTT0=
EXTT1=
EXTT2=
EXTT3=
EXTT4=
EXTT5=
EXTT6=
PLAYORDER=
